#!OML:ASF C:\ViconDB\ViconDB\414\Spring2016\041811\Spring2016.ASF
:FULLY-SPECIFIED
:DEGREES
302
root 8.84379 17.5039 -26.4273 -181.145 -3.98455 -168.595
lowerback -3.6926 3.34551 -0.775333
upperback 0.163383 4.49177 0.0617177
thorax 2.16841 2.23145 0.740859
lowerneck -10.7737 4.54976 -5.43319
upperneck 29.7986 -5.2104 27.3792
head 12.5872 -1.70263 11.1047
rclavicle -1.81143e-014 5.24792e-014
rhumerus -93.5556 37.6328 -129.605
rradius 83.0782
rwrist 18.578
rhand -48.2364 -6.35319
rfingers 7.12502
rthumb -20.8955 -35.2478
lclavicle -1.81143e-014 5.24792e-014
lhumerus -80.8663 -42.3326 114.573
lradius 81.4768
lwrist -30.4159
lhand -40.6097 -4.85486
lfingers 7.12502
lthumb -13.5555 24.6839
rfemur 297.54 112.459 -366.469
rtibia 34.336
rfoot -450.695 -49.0688
rtoes 2.68893
lfemur -41.2138 -9.31287 -0.982395
ltibia 32.0532
lfoot -7.32229 -8.86405
ltoes -15.7575
303
root 8.8135 17.4916 -26.6433 -181.007 -3.73222 -168.791
lowerback -3.92059 3.42396 -0.932368
upperback 0.0597979 4.60431 0.0227811
thorax 2.17855 2.28558 0.804884
lowerneck -10.6217 4.73831 -5.2749
upperneck 30.1766 -5.0676 27.2402
head 12.6669 -1.6486 11.0617
rclavicle -6.94939e-014 4.77083e-015
rhumerus -94.0776 37.759 -130.256
rradius 83.1179
rwrist 17.8289
rhand -48.2691 -6.37341
rfingers 7.12502
rthumb -20.9269 -35.2646
lclavicle -6.94939e-014 4.77083e-015
lhumerus -80.6527 -42.1479 114.376
lradius 81.5285
lwrist -30.0631
lhand -40.3964 -5.10739
lfingers 7.12502
lthumb -13.3499 24.4449
rfemur 300.743 114.799 -363.556
rtibia 33.689
rfoot -447.414 -48.7416
rtoes 1.49665
lfemur -41.034 -10.0219 -1.32485
ltibia 31.6071
lfoot -7.24739 -7.33811
ltoes -15.1805
304
root 8.77944 17.4703 -26.8637 -180.913 -3.47216 -168.495
lowerback -4.19586 3.52576 -0.4113
upperback -0.0190707 4.71565 0.0278644
thorax 2.29088 2.34553 0.544274
lowerneck -10.5343 4.9774 -5.07452
upperneck 30.5128 -4.95365 27.3123
head 12.7653 -1.59462 11.1063
rclavicle -7.36e-014 -3.18055e-015
rhumerus -94.3328 37.7587 -130.79
rradius 82.8213
rwrist 18.0855
rhand -48.6614 -7.28774
rfingers 7.12502
rthumb -21.3038 -36.1368
lclavicle -7.36e-014 -3.18055e-015
lhumerus -80.3862 -41.9653 113.939
lradius 81.6036
lwrist -30.1487
lhand -40.0426 -5.44281
lfingers 7.12502
lthumb -13.0088 24.1316
rfemur 302.773 116.859 -361.297
rtibia 33.0711
rfoot -444.893 -48.5456
rtoes -0.853951
lfemur -40.7727 -10.5765 -1.26039
ltibia 31.4142
lfoot -6.91757 -5.97617
ltoes -15.2028
305
root 8.74256 17.457 -27.0866 -180.895 -3.13144 -168.64
lowerback -4.31744 3.60656 -0.469214
upperback -0.0921468 4.82429 0.0644765
thorax 2.27468 2.39853 0.625401
lowerneck -10.443 5.18338 -5.15764
upperneck 30.9799 -4.84597 27.3689
head 12.9157 -1.57852 11.2229
rclavicle 4.40215e-014 -4.77083e-014
rhumerus -94.7339 37.759 -131.148
rradius 82.8301
rwrist 17.8105
rhand -48.7001 -7.47542
rfingers 7.12502
rthumb -21.341 -36.3203
lclavicle 4.40215e-014 -4.77083e-014
lhumerus -80.1196 -41.7329 113.845
lradius 81.5691
lwrist -30.0984
lhand -39.739 -5.38541
lfingers 7.12502
lthumb -12.7162 24.2074
rfemur 304.389 119.03 -359.928
rtibia 32.4429
rfoot -442.445 -48.3039
rtoes -0.947956
lfemur -40.2433 -11.304 -1.65423
ltibia 31.3819
lfoot -6.31268 -4.83918
ltoes -15.5113
306
root 8.71685 17.4455 -27.3104 -181.172 -2.68389 -169.741
lowerback -4.00168 3.73538 -1.49702
upperback -0.12636 5.04564 -0.233934
thorax 1.99884 2.50161 0.875599
lowerneck -10.2218 5.37736 -4.71197
upperneck 31.423 -4.73593 27.033
head 13.0152 -1.52836 11.0248
rclavicle -1.44989e-014 4.29375e-014
rhumerus -94.9157 37.5276 -131.446
rradius 82.6845
rwrist 17.7971
rhand -48.8867 -7.85294
rfingers 7.12502
rthumb -21.5202 -36.6774
lclavicle -1.44989e-014 4.29375e-014
lhumerus -80.0471 -41.7135 113.722
lradius 81.5307
lwrist -30.0315
lhand -39.5995 -5.33397
lfingers 7.12502
lthumb -12.5817 24.2672
rfemur 306.23 122.232 -359.107
rtibia 31.7254
rfoot -438.948 -48.2967
rtoes -2.89219
lfemur -39.3189 -12.1102 -3.17464
ltibia 31.5912
lfoot -5.21157 -4.30573
ltoes -14.8127
307
root 8.68083 17.4438 -27.5428 -181.077 -2.27971 -169.661
lowerback -4.24273 3.80167 -1.31367
upperback -0.256042 5.1248 -0.162037
thorax 2.00771 2.54225 0.86417
lowerneck -10.0202 5.61281 -4.5875
upperneck 31.8259 -4.57628 26.9788
head 13.0995 -1.47919 11.0324
rclavicle -7.73521e-014 -3.65764e-014
rhumerus -95.2661 37.4468 -131.839
rradius 82.6337
rwrist 17.4772
rhand -49.116 -8.16338
rfingers 7.12502
rthumb -21.7404 -36.9625
lclavicle -7.73521e-014 -3.65764e-014
lhumerus -79.8113 -41.4753 113.456
lradius 81.5388
lwrist -29.9431
lhand -39.1478 -5.26721
lfingers 7.12502
lthumb -12.1461 24.3602
rfemur 308.324 125.049 -356.933
rtibia 30.9206
rfoot -435.288 -48.8077
rtoes -3.06476
lfemur -38.972 -13.0309 -3.10806
ltibia 32.0371
lfoot -2.72508 -4.70818
ltoes -13.5293
308
root 8.64441 17.4522 -27.7749 -180.921 -2.00654 -169.595
lowerback -4.47529 3.86727 -1.088
upperback -0.461503 5.19792 -0.141766
thorax 1.94278 2.58014 0.772794
lowerneck -9.73869 5.86103 -4.53387
upperneck 32.1346 -4.47635 27.1851
head 13.151 -1.46476 11.1587
rclavicle 5.2181e-015 2.8625e-014
rhumerus -95.3877 37.1773 -131.897
rradius 82.6942
rwrist 16.9071
rhand -49.001 -7.61183
rfingers 7.12502
rthumb -21.63 -36.4237
lclavicle 5.2181e-015 2.8625e-014
lhumerus -79.6933 -41.371 113.322
lradius 81.506
lwrist -29.6802
lhand -38.695 -5.38366
lfingers 7.12502
lthumb -11.7095 24.2691
rfemur 310.288 127.821 -354.902
rtibia 30.0871
rfoot -431.714 -49.1771
rtoes -2.74488
lfemur -38.9188 -14.2617 -2.85291
ltibia 32.7268
lfoot -0.12042 -5.32934
ltoes -9.54935
309
root 8.6146 17.4678 -28.0081 -180.987 -1.74053 -170.706
lowerback -4.47981 3.86517 -2.12357
upperback -0.518519 5.24382 -0.394323
thorax 1.81673 2.59475 1.08505
lowerneck -9.54972 6.10983 -4.37347
upperneck 32.4997 -4.30857 27.1661
head 13.2243 -1.40524 11.172
rclavicle 3.80673e-014 2.38542e-014
rhumerus -95.3914 37.014 -131.917
rradius 82.5466
rwrist 17.1498
rhand -49.056 -8.05622
rfingers 7.12502
rthumb -21.6828 -36.862
lclavicle 3.80673e-014 2.38542e-014
lhumerus -79.2848 -41.1425 112.884
lradius 81.3941
lwrist -29.9221
lhand -38.0799 -5.64579
lfingers 7.12502
lthumb -11.1163 24.0398
rfemur 311.576 130.869 -354.567
rtibia 29.4317
rfoot -427.981 -49.4576
rtoes -3.77861
lfemur -38.5211 -15.4115 -4.18292
ltibia 33.4955
lfoot 0.517773 -5.18477
ltoes -6.50535
310
root 8.58287 17.4895 -28.2285 -180.909 -1.48276 -171.263
lowerback -4.49824 3.88495 -2.5024
upperback -0.645392 5.2827 -0.612837
thorax 1.68163 2.61125 1.06807
lowerneck -9.31644 6.33085 -4.01807
upperneck 32.797 -4.20056 27.0799
head 13.2761 -1.35898 11.0923
rclavicle -7.46933e-014 5.88403e-014
rhumerus -94.8819 36.674 -131.62
rradius 82.2627
rwrist 17.5505
rhand -49.1223 -8.17085
rfingers 7.12502
rthumb -21.7465 -36.9693
lclavicle -7.46933e-014 5.88403e-014
lhumerus -79.0097 -41.1776 112.379
lradius 81.4448
lwrist -29.7213
lhand -37.4368 -5.91409
lfingers 7.12502
lthumb -10.496 23.8039
rfemur 313.245 134.197 -353.123
rtibia 28.8683
rfoot -423.668 -50.2176
rtoes -4.58624
lfemur -38.3613 -16.2571 -4.89971
ltibia 34.3713
lfoot -0.603247 -3.54786
ltoes -8.3551
311
root 8.53619 17.5195 -28.448 -180.508 -1.06716 -173.516
lowerback -4.95325 3.89 -4.61717
upperback -0.742149 5.38851 -1.18688
thorax 1.6917 2.63627 1.67827
lowerneck -9.15476 6.51642 -3.7902
upperneck 33.1735 -4.04501 26.8357
head 13.3592 -1.30185 10.9833
rclavicle 5.41191e-014 -3.02153e-014
rhumerus -94.4264 36.4796 -131.14
rradius 82.1075
rwrist 17.6046
rhand -49.1233 -7.67683
rfingers 7.12502
rthumb -21.7474 -36.4751
lclavicle 5.41191e-014 -3.02153e-014
lhumerus -78.7369 -41.1956 112.114
lradius 81.4084
lwrist -30.0839
lhand -36.9636 -5.8399
lfingers 7.12502
lthumb -10.0395 23.9006
rfemur 314.847 137.443 -353.699
rtibia 28.4571
rfoot -419.786 -51.3024
rtoes -5.35135
lfemur -38.2943 -17.3639 -7.28987
ltibia 35.1766
lfoot -1.35135 -1.23816
ltoes -8.57532
312
root 8.50238 17.5291 -28.6702 -180.509 -0.948921 -173.906
lowerback -4.98977 3.82067 -4.82014
upperback -0.77946 5.30197 -1.29446
thorax 1.67036 2.58955 1.67631
lowerneck -9.04115 6.7169 -3.67652
upperneck 33.4688 -3.90896 26.8125
head 13.4311 -1.25582 10.9954
rclavicle -1.05157e-013 -3.18055e-015
rhumerus -93.7262 36.1637 -130.524
rradius 81.9166
rwrist 17.8806
rhand -48.9209 -7.33759
rfingers 7.12502
rthumb -21.553 -36.1583
lclavicle -1.05157e-013 -3.18055e-015
lhumerus -78.5573 -41.3424 111.912
lradius 81.3711
lwrist -29.9389
lhand -36.526 -6.38286
lfingers 7.12502
lthumb -9.6173 23.3776
rfemur 315.641 140.207 -352.913
rtibia 27.9388
rfoot -416.018 -52.723
rtoes -5.15867
lfemur -37.987 -17.8452 -7.97516
ltibia 36.0693
lfoot -1.9162 -0.774239
ltoes -8.02979
313
root 8.46824 17.5433 -28.8917 -180.675 -0.81256 -174.021
lowerback -4.85767 3.80368 -4.7004
upperback -0.784129 5.26682 -1.25939
thorax 1.6016 2.57568 1.63454
lowerneck -8.86908 6.87901 -3.80464
upperneck 33.6627 -3.74323 26.8888
head 13.4319 -1.21521 11.0917
rclavicle 2.54444e-014 3.18055e-015
rhumerus -93.1155 35.7697 -129.739
rradius 81.926
rwrist 18.3595
rhand -48.7645 -6.95117
rfingers 7.12502
rthumb -21.4028 -35.789
lclavicle 2.54444e-014 3.18055e-015
lhumerus -78.7534 -41.6401 112.194
lradius 81.3209
lwrist -29.9027
lhand -36.5852 -6.50304
lfingers 7.12502
lthumb -9.67447 23.2548
rfemur 316.113 142.891 -352.081
rtibia 27.4323
rfoot -412.492 -54.6013
rtoes -5.75315
lfemur -37.4753 -18.0245 -8.48964
ltibia 36.9083
lfoot -2.32923 -1.01095
ltoes -7.16839
314
root 8.43692 17.5537 -29.1122 -180.882 -0.699223 -174.146
lowerback -4.69432 3.72177 -4.65889
upperback -0.775062 5.14823 -1.19853
thorax 1.52511 2.51993 1.6565
lowerneck -8.75146 7.05722 -3.70014
upperneck 34.0228 -3.49103 26.5719
head 13.4906 -1.12185 10.9812
rclavicle -3.56818e-014 2.38542e-014
rhumerus -92.5731 35.4168 -128.965
rradius 81.8991
rwrist 19.1593
rhand -48.5306 -7.20883
rfingers 7.12502
rthumb -21.1781 -36.072
lclavicle -3.56818e-014 2.38542e-014
lhumerus -79.0343 -41.8725 112.461
lradius 81.3901
lwrist -30.0286
lhand -36.3068 -6.27478
lfingers 7.12502
lthumb -9.40584 23.4954
rfemur 316.175 144.851 -351.77
rtibia 26.9589
rfoot -410.334 -56.7103
rtoes -6.86828
lfemur -36.9933 -17.9534 -9.09036
ltibia 37.9355
lfoot -3.19846 -1.18713
ltoes -7.25276
